<?xml version="1.0" standalone="no"?>
<!DOCTYPE svg PUBLIC "-//W3C//DTD SVG 20010904//EN"
 "http://www.w3.org/TR/2001/REC-SVG-20010904/DTD/svg10.dtd">
<svg version="1.0" xmlns="http://www.w3.org/2000/svg"
 width="260.000000pt" height="260.000000pt" viewBox="0 0 260.000000 260.000000"
 preserveAspectRatio="xMidYMid meet">
<metadata>
Created by potrace 1.14, written by Peter Selinger 2001-2017
</metadata>
<g transform="translate(0.000000,260.000000) scale(0.100000,-0.100000)"
fill="#000000" stroke="none">
<path d="M720 2317 c-311 -110 -566 -201 -567 -202 -8 -4 172 -1512 181 -1522
6 -7 227 -132 491 -277 l479 -265 50 28 c28 16 248 138 489 271 240 133 437
246 437 251 0 5 38 341 85 745 47 405 85 744 85 753 0 14 -114 58 -567 219
-313 111 -575 202 -583 201 -8 0 -269 -91 -580 -202z"/>
</g>
</svg>
